<svg width="30" height="30" viewBox="0 0 30 30" fill="none" xmlns="http://www.w3.org/2000/svg">
<path d="M3.05176e-05 5.45455C3.05176e-05 6.96078 1.25923 8.18182 2.81253 8.18182L27.1875 8.18182C28.7408 8.18182 30 6.96078 30 5.45455V2.72727C30 1.22104 28.7408 0 27.1875 0L2.81253 0C1.25923 0 3.05176e-05 1.22104 3.05176e-05 2.72727L3.05176e-05 5.45455Z" fill="black"/>
<path d="M3.05176e-05 27.2728C3.05176e-05 28.779 1.25923 30 2.81253 30L27.1875 30C28.7408 30 30 28.779 30 27.2728V24.5455C30 23.0393 28.7408 21.8182 27.1875 21.8182L2.81253 21.8182C1.25923 21.8182 3.05176e-05 23.0393 3.05176e-05 24.5455L3.05176e-05 27.2728Z" fill="black"/>
<path d="M3.05176e-05 16.3636C3.05176e-05 17.8698 1.25923 19.0909 2.81253 19.0909L27.1875 19.0909C28.7408 19.0909 30 17.8698 30 16.3636V13.6363C30 12.1301 28.7408 10.9091 27.1875 10.9091L2.81253 10.9091C1.25923 10.9091 3.05176e-05 12.1301 3.05176e-05 13.6363L3.05176e-05 16.3636Z" fill="black"/>
</svg>
